    <svg id="heyday-logo-blue" xmlns="http://www.w3.org/2000/svg" viewBox="0 0 994.22 1014.33">
      <defs>
        <style>
          .cls-1 {
            fill: #00ddd9;
          }
        </style>
      </defs>
      <path class="cls-1" d="M712.23,56.31,678.67,220.68l-44.61-9.11,13-63.87L591,136.24l-13,63.88L533.33,191,566.89,26.64l44.61,9.1L599.33,95.39l56.11,11.45L667.62,47.2ZM920.11,472.08,881.06,486.7,842.32,383.24l157.11-58.83,37.48,100.1-39.05,14.63-21.51-57.46-18.63,7,18.91,50.5-37,13.87-18.9-50.5-23.36,8.74ZM810.48,812.86l-43.4-36.26,29.36-35.14,43,36,127.35,21.77-34.88,41.75-72.89-17.8-.46.55,30.48,68.56L854.18,934ZM377.19,931.26c9.58-51.37,49.79-76,105.16-65.72l56.29,10.51L507.87,1041l-56.3-10.5C395.73,1020,367.61,982.61,377.19,931.26Zm93.39,61.3,15.83-84.82-11.78-2.2c-25.44-4.74-45,6.23-50.32,34.51s9.05,45.57,34.49,50.32ZM168.34,616.41,189,669.83l33-1.71,18.15,47L60.24,715,42.69,669.6,175.75,548.53l18.15,47ZM139,640.1,96.13,674.89l55.18-2.83Zm128.9-385.62,43.4,36.27-29.36,35.13-43-36L111.51,268.15l34.88-41.75,72.89,17.8.46-.55-30.47-68.56,34.88-41.75Z" transform="translate(-42.69 -26.64)" />
    </svg>