<?xml version="1.0" encoding="utf-8"?>
<!-- Generator: Adobe Illustrator 21.0.0, SVG Export Plug-In . SVG Version: 6.00 Build 0)  -->
<svg version="1.1" id="Layer_1" xmlns="http://www.w3.org/2000/svg" xmlns:xlink="http://www.w3.org/1999/xlink" x="0px" y="0px"
	 viewBox="0 0 64 64" style="enable-background:new 0 0 64 64;" xml:space="preserve">
    <defs>
      <linearGradient id="logo-gradient" x1="50%" y1="0%" x2="50%" y2="100%">
        <!--Use two colors and alternate them as shown below-->
        <stop offset="0%" stop-color="color-1">
          <animate attributeName="stop-color" values="#5200ff; #17404e; #5200ff" dur="4s" repeatCount="indefinite"></animate>
        </stop>
        <stop offset="50%" stop-color="color-2">
          <animate attributeName="stop-color" values="#17404e; #5200ff; #17404e" dur="6s" repeatCount="indefinite"></animate>
        </stop>
        <stop offset="100%" stop-color="color-3">
          <animate attributeName="stop-color" values="#5200ff; #17404e; #5200ff" dur="4s" repeatCount="indefinite"></animate>
        </stop>

      </linearGradient>
    </defs>
    <g fill="url('#logo-gradient')"> 
	<path d="M27,14l4.1,0.2l9.8,9.8l-0.3,1.7c0,0.2,0,0.4,0.1,0.5c0.1,0.2,0.2,0.3,0.3,0.4c0.2,0.1,0.3,0.2,0.5,0.2
		c0.2,0,0.4,0,0.5-0.1l1.1-0.6l7.9,8c0.2,0.2,0.4,0.3,0.7,0.3c0.3,0,0.5-0.1,0.7-0.3c0.2-0.2,0.3-0.4,0.3-0.7s-0.1-0.5-0.3-0.7
		L45,25.2l4-2.1l7,3.7c0.2,0.1,0.4,0.1,0.5,0.1c0.2,0,0.4-0.1,0.5-0.2c0.2-0.1,0.3-0.3,0.3-0.4c0.1-0.2,0.1-0.4,0.1-0.5l-1.3-7.7
		l5.6-5.5c0.1-0.1,0.2-0.3,0.3-0.5s0-0.4,0-0.5c-0.1-0.2-0.2-0.3-0.3-0.5c-0.1-0.1-0.3-0.2-0.5-0.2l-8.3-1.2c-0.1,0-0.3,0-0.4,0
		c-0.1,0-0.2,0.1-0.4,0.2C52,9.8,51.9,9.9,51.8,10c-0.1,0.1-0.1,0.2-0.1,0.4c0,0.1,0,0.3,0,0.4c0,0.1,0.1,0.2,0.2,0.4
		c0.1,0.1,0.2,0.2,0.3,0.3c0.1,0.1,0.2,0.1,0.4,0.1l2.9,0.4L50,13.2V7.3l0.3,0.6c0.1,0.2,0.3,0.4,0.6,0.5c0.2,0.1,0.5,0.1,0.8-0.1
		C51.8,8.2,52,8,52.1,7.7c0.1-0.2,0.1-0.5,0-0.8l-2.2-4.4c-0.1-0.2-0.2-0.3-0.4-0.4S49.2,2,49,2c-0.2,0-0.4,0-0.5,0.1
		c-0.2,0.1-0.3,0.2-0.4,0.4l-3.5,7l-7.8,1.1c-0.2,0-0.4,0.1-0.5,0.2c-0.1,0.1-0.2,0.3-0.3,0.5C36,11.6,36,11.8,36,12
		c0,0.2,0.1,0.3,0.3,0.5l5.6,5.5l-0.6,3.6l-9.1-9.1c-0.2-0.2-0.4-0.3-0.7-0.3L27,12c-0.1,0-0.3,0-0.4,0.1c-0.1,0-0.2,0.1-0.3,0.2
		c-0.1,0.1-0.2,0.2-0.2,0.3C26,12.7,26,12.8,26,13c0,0.1,0,0.3,0.1,0.4c0,0.1,0.1,0.2,0.2,0.3c0.1,0.1,0.2,0.2,0.3,0.2
		C26.7,14,26.8,14,27,14z M48.5,21l-4,2.1l4.5-6.9l4.5,6.9l-4-2.1c-0.1-0.1-0.3-0.1-0.5-0.1S48.7,21,48.5,21z M54,17.7l0.6,3.5
		l-4-6.1l7.2-1.6l-3.5,3.4c-0.1,0.1-0.2,0.3-0.3,0.4C54,17.4,54,17.6,54,17.7L54,17.7z M45.4,11.5c0.2,0,0.3-0.1,0.4-0.2
		c0.1-0.1,0.2-0.2,0.3-0.4L48,7.3v5.9l-5.5-1.2L45.4,11.5z M40.2,13.5l7.2,1.6l-4,6.1l0.6-3.5c0-0.2,0-0.3,0-0.5
		c-0.1-0.2-0.1-0.3-0.3-0.4L40.2,13.5z"/>
	<path d="M55.3,35.5c-0.2-0.2-0.4-0.3-0.7-0.3c-0.3,0-0.5,0.1-0.7,0.3s-0.3,0.4-0.3,0.7c0,0.3,0.1,0.5,0.3,0.7l5.2,5.2
		c0.6,0.6,0.9,1.3,0.9,2.1s-0.3,1.6-0.9,2.1L46.4,59.1c-0.6,0.6-1.3,0.9-2.1,0.9c-0.8,0-1.6-0.3-2.1-0.9L30.6,47.5l4.1-4
		c0.1-0.1,0.2-0.3,0.3-0.5c0-0.2,0-0.4,0-0.5c-0.1-0.2-0.2-0.3-0.3-0.5s-0.3-0.2-0.5-0.2L24,40.3l-4.6-9.2c-0.1-0.2-0.2-0.3-0.4-0.4
		c-0.2-0.1-0.3-0.1-0.5-0.1s-0.4,0-0.5,0.1c-0.2,0.1-0.3,0.2-0.4,0.4l-1.2,2.3l-2.3-2.3l-0.4-10.5c0.6,0.2,1.1,0.3,1.7,0.3
		c0.3,0.5,0.8,0.9,1.3,1.2c0.5,0.3,1.1,0.5,1.7,0.6c0.6,0.1,1.2,0,1.8-0.2c0.6-0.2,1.1-0.5,1.5-0.9c0.5-0.5,0.8-1,1-1.7
		c0.2-0.6,0.2-1.3,0.1-1.9c-0.1-0.6-0.4-1.3-0.8-1.8c-0.4-0.5-1-0.9-1.6-1.2c-0.6-0.3-1.3-0.3-1.9-0.3c-0.7,0.1-1.3,0.3-1.8,0.7
		c-0.5,0.4-1,0.9-1.3,1.5c-0.3,0.6-0.5,1.2-0.5,1.9c-0.4-0.1-0.8-0.2-1.1-0.3l-0.2-5l9.5,0.3c0.1,0,0.3,0,0.4-0.1
		c0.1,0,0.2-0.1,0.3-0.2c0.1-0.1,0.2-0.2,0.2-0.3C24,13.1,24,13,24,12.9c0-0.1,0-0.3-0.1-0.4c0-0.1-0.1-0.2-0.2-0.3
		c-0.1-0.1-0.2-0.2-0.3-0.2s-0.2-0.1-0.4-0.1l-3.2-0.1c-0.9-1.9-2.1-3.5-3.6-5c-1.9-2-4.3-3.5-6.9-4.3C6.8,1.6,4.7,2,3.3,3.3
		S1.6,6.8,2.4,9.4c0.9,2.6,2.4,5,4.3,6.9c1.5,1.5,3.1,2.7,5,3.6l0.4,11.7c0,0.3,0.1,0.5,0.3,0.7l3.1,3.1l-2.5,5L2.9,41.8
		c-0.2,0-0.4,0.1-0.5,0.2c-0.1,0.1-0.3,0.3-0.3,0.5C2,42.6,2,42.8,2,43c0,0.2,0.1,0.3,0.3,0.5l5.4,5.2C7.9,48.9,8.1,49,8.4,49
		c0.3,0,0.5-0.1,0.7-0.3c0.2-0.2,0.3-0.4,0.3-0.7c0-0.3-0.1-0.5-0.3-0.7l-2.9-2.8l10.7,2.4l-6.2,9.5l1-5.9c0-0.3,0-0.5-0.2-0.7
		c-0.2-0.2-0.4-0.4-0.6-0.4c-0.3,0-0.5,0-0.7,0.2c-0.2,0.2-0.4,0.4-0.4,0.6L7.9,60.8c0,0.2,0,0.4,0.1,0.5c0.1,0.2,0.2,0.3,0.3,0.4
		C8.5,61.9,8.7,62,8.8,62c0.2,0,0.4,0,0.5-0.1l9.1-4.8l9.1,4.8C27.8,62,28,62,28.2,62c0.2,0,0.4-0.1,0.5-0.2
		c0.2-0.1,0.3-0.3,0.3-0.4c0.1-0.2,0.1-0.4,0.1-0.5l-1.7-10.1l1.8-1.8l11.6,11.6c0.9,0.9,2.2,1.5,3.5,1.5s2.6-0.5,3.5-1.5l12.7-12.7
		c0.9-0.9,1.5-2.2,1.5-3.5c0-1.3-0.5-2.6-1.5-3.5L55.3,35.5z M20.2,20.2c-0.3,0.3-0.6,0.5-1,0.5c-0.4,0.1-0.8,0-1.1-0.1
		c0.6-0.2,1.1-0.6,1.6-1c0.5-0.4,0.8-1,1-1.6c0.1,0.4,0.2,0.8,0.1,1.1C20.7,19.6,20.5,20,20.2,20.2L20.2,20.2z M17.4,17.4
		c0.2-0.2,0.4-0.3,0.6-0.4c0.2-0.1,0.5-0.2,0.8-0.2c0,0,0.1,0,0.1,0c-0.1,0.5-0.3,1-0.7,1.4c-0.4,0.4-0.9,0.6-1.4,0.7
		c0-0.3,0-0.6,0.1-0.8C17,17.8,17.2,17.6,17.4,17.4z M8.1,14.9c-1.7-1.7-3.1-3.7-3.8-6C3.8,7,3.9,5.6,4.7,4.7s2.3-1,4.1-0.4
		c2.3,0.8,4.4,2.1,6,3.8c1,1,2,2.2,2.7,3.5l-5.1-0.2c-0.1,0-0.3,0-0.4,0.1c-0.1,0.1-0.2,0.1-0.3,0.2c-0.1,0.1-0.2,0.2-0.2,0.3
		c-0.1,0.1-0.1,0.3-0.1,0.4l0.2,5.1C10.4,16.8,9.2,15.9,8.1,14.9L8.1,14.9z M23.1,42.2l5.4,0.8l-9,2v-9.2l2.9,5.9
		c0.1,0.1,0.2,0.3,0.3,0.4C22.8,42.1,23,42.2,23.1,42.2z M8.5,43l5.4-0.8c0.2,0,0.3-0.1,0.4-0.2c0.1-0.1,0.2-0.2,0.3-0.4l2.9-5.9V45
		L8.5,43z M18,55.1l-6.2,3.3l6.7-10.2l6.7,10.2L19,55.1C18.8,55,18.7,55,18.5,55S18.2,55,18,55.1L18,55.1z M25.3,50.5l1,5.9
		l-6.2-9.5l10.7-2.4l-5.2,5.1c-0.1,0.1-0.2,0.3-0.3,0.4C25.2,50.2,25.2,50.3,25.3,50.5L25.3,50.5z"/>
	<g>
		<path d="M27.5,27.5c0.6,0,1.1-0.2,1.6-0.6c0.5-0.3,0.8-0.8,1-1.3c0.2-0.5,0.3-1.1,0.1-1.7c-0.1-0.6-0.4-1.1-0.8-1.5L28,20.9
			c-0.2-0.2-0.4-0.3-0.7-0.3c-0.3,0-0.5,0.1-0.7,0.3l-5.7,5.7c-0.2,0.2-0.3,0.4-0.3,0.7c0,0.3,0.1,0.5,0.3,0.7l1.4,1.4
			c0.4,0.4,0.9,0.7,1.5,0.8c0.6,0.1,1.2,0.1,1.7-0.1c0.5-0.2,1-0.6,1.3-1C27.2,28.6,27.4,28,27.5,27.5L27.5,27.5z M27.3,23.1
			l0.7,0.7c0.2,0.2,0.3,0.4,0.3,0.7c0,0.3-0.1,0.5-0.3,0.7c-0.2,0.2-0.4,0.3-0.7,0.3c-0.3,0-0.5-0.1-0.7-0.3l-0.7-0.7L27.3,23.1z
			 M25.2,28c-0.2,0.2-0.4,0.3-0.7,0.3S24,28.2,23.8,28l-0.7-0.7l1.4-1.4l0.7,0.7c0.1,0.1,0.2,0.2,0.2,0.3c0.1,0.1,0.1,0.3,0.1,0.4
			c0,0.1,0,0.3-0.1,0.4C25.3,27.8,25.3,27.9,25.2,28L25.2,28z"/>
		<path d="M29.4,35.1c-0.1,0.1-0.2,0.2-0.2,0.3c-0.1,0.1-0.1,0.3-0.1,0.4c0,0.1,0,0.3,0.1,0.4c0.1,0.1,0.1,0.2,0.2,0.3
			c0.1,0.1,0.2,0.2,0.3,0.2s0.3,0.1,0.4,0.1c0.1,0,0.3,0,0.4-0.1c0.1-0.1,0.2-0.1,0.3-0.2l1.4-1.4c0.5-0.5,0.8-1.2,0.9-2
			c0.6,0,1.1-0.2,1.6-0.6c0.5-0.3,0.8-0.8,1-1.3c0.2-0.5,0.3-1.1,0.1-1.7c-0.1-0.6-0.4-1.1-0.8-1.5l-1.4-1.4
			c-0.2-0.2-0.4-0.3-0.7-0.3c-0.3,0-0.5,0.1-0.7,0.3l-5.7,5.7c-0.1,0.1-0.2,0.2-0.2,0.3s-0.1,0.3-0.1,0.4c0,0.1,0,0.3,0.1,0.4
			c0.1,0.1,0.1,0.2,0.2,0.3c0.1,0.1,0.2,0.2,0.3,0.2C27,34,27.2,34,27.3,34c0.1,0,0.3,0,0.4-0.1c0.1-0.1,0.2-0.1,0.3-0.2l2.1-2.1
			l0.7,0.7c0.2,0.2,0.3,0.4,0.3,0.7c0,0.3-0.1,0.5-0.3,0.7L29.4,35.1z M33,28.7l0.7,0.7c0.2,0.2,0.3,0.4,0.3,0.7s-0.1,0.5-0.3,0.7
			c-0.2,0.2-0.4,0.3-0.7,0.3s-0.5-0.1-0.7-0.3l-0.7-0.7L33,28.7z"/>
		<path d="M35.1,40.7c-0.1,0.1-0.2,0.2-0.2,0.3c-0.1,0.1-0.1,0.3-0.1,0.4c0,0.1,0,0.3,0.1,0.4c0.1,0.1,0.1,0.2,0.2,0.3
			c0.1,0.1,0.2,0.2,0.3,0.2c0.1,0.1,0.3,0.1,0.4,0.1c0.1,0,0.3,0,0.4-0.1c0.1-0.1,0.2-0.1,0.3-0.2l4.2-4.2c0.6-0.6,0.9-1.3,0.9-2.1
			c0-0.8-0.3-1.6-0.9-2.1c-0.6-0.5-1.3-0.9-2.1-0.9c-0.8,0-1.6,0.3-2.1,0.9l-4.2,4.2c-0.2,0.2-0.3,0.4-0.3,0.7
			c0,0.3,0.1,0.5,0.3,0.7c0.2,0.2,0.4,0.3,0.7,0.3c0.3,0,0.5-0.1,0.7-0.3l2.1-2.1l1.4,1.4L35.1,40.7z M37.2,35.8l0.7-0.7
			c0.2-0.2,0.4-0.3,0.7-0.3c0.3,0,0.5,0.1,0.7,0.3c0.2,0.2,0.3,0.4,0.3,0.7c0,0.3-0.1,0.5-0.3,0.7l-0.7,0.7L37.2,35.8z"/>
		<path d="M40.9,48c0.2,0.1,0.4,0.2,0.6,0.1c0.2,0,0.4-0.1,0.6-0.3l5.7-5.7c0.2-0.2,0.3-0.4,0.3-0.7c0-0.3-0.1-0.5-0.3-0.7
			c-0.2-0.2-0.4-0.3-0.7-0.3s-0.5,0.1-0.7,0.3l-2.7,2.7l1.5-4.5c0.1-0.2,0.1-0.4,0-0.7c-0.1-0.2-0.2-0.4-0.4-0.5
			c-0.2-0.1-0.4-0.2-0.6-0.1c-0.2,0-0.4,0.1-0.6,0.3l-5.7,5.7c-0.2,0.2-0.3,0.4-0.3,0.7s0.1,0.5,0.3,0.7c0.2,0.2,0.4,0.3,0.7,0.3
			s0.5-0.1,0.7-0.3l2.7-2.7l-1.5,4.5c-0.1,0.2-0.1,0.4,0,0.7C40.6,47.7,40.7,47.8,40.9,48z"/>
		<path d="M45,52c0.3,0.3,0.6,0.5,1,0.7c0.4,0.2,0.8,0.2,1.1,0.2c0.4,0,0.8-0.1,1.1-0.2c0.4-0.2,0.7-0.4,1-0.7l2.8-2.8
			c0.6-0.6,0.9-1.3,0.9-2.1c0-0.8-0.3-1.6-0.9-2.1l-1.4-1.4c-0.2-0.2-0.4-0.3-0.7-0.3c-0.3,0-0.5,0.1-0.7,0.3l-5.7,5.7
			c-0.2,0.2-0.3,0.4-0.3,0.7c0,0.3,0.1,0.5,0.3,0.7L45,52z M49.9,45.7l0.7,0.7c0.2,0.2,0.3,0.4,0.3,0.7c0,0.3-0.1,0.5-0.3,0.7
			l-2.8,2.8c-0.2,0.2-0.4,0.3-0.7,0.3c-0.3,0-0.5-0.1-0.7-0.3l-0.7-0.7L49.9,45.7z"/>
	</g>
</g>
</svg>
