<svg id="Layer_1" data-name="Layer 1" xmlns="http://www.w3.org/2000/svg" viewBox="0 0 168.31 168.31"><defs><style>.cls-1{fill:#fceb04;}.cls-2{fill:#231f20;}</style></defs><title>smiley-face</title><path d="M2.92,62.26A84.13,84.13,0,1,0,106,2.92,84.13,84.13,0,0,0,2.92,62.26"/><path class="cls-1" d="M8.38,60.07a81.18,81.18,0,1,0,99.5-57.26A81.18,81.18,0,0,0,8.38,60.07"/><path class="cls-2" d="M35.74,67.45l-3-.8a56,56,0,0,0,45.83,69.89"/><path class="cls-2" d="M78.59,136.53a56,56,0,0,0,62.17-40.78l-3-.81A52.9,52.9,0,0,1,73,132.22"/><path d="M107.38,51.55c-3.51,13-2.54,24.58,2.15,25.84s11.34-8.26,14.84-21.26,2.54-24.58-2.15-25.84-11.34,8.26-14.84,21.26"/><path d="M66.84,40.63c-3.51,13-2.54,24.58,2.15,25.84S80.32,58.21,83.83,45.2s2.54-24.58-2.15-25.84S70.34,27.62,66.84,40.63"/><path class="cls-2" d="M145.1,101.55A1.55,1.55,0,0,0,146.5,99a19.72,19.72,0,0,0-13.94-7,1.55,1.55,0,0,0-.23,3.09,16.48,16.48,0,0,1,11.82,6,1.54,1.54,0,0,0,.95.52"/><path class="cls-2" d="M26.44,69.57a1.52,1.52,0,0,0,.73-.07,16.52,16.52,0,0,1,13.22.78,1.55,1.55,0,0,0,1.35-2.78,19.71,19.71,0,0,0-15.59-.92,1.55,1.55,0,0,0,.28,3"/></svg>